<svg width="19" height="20" viewBox="0 0 19 20" fill="none" xmlns="http://www.w3.org/2000/svg">
<g id="Frame">
<path id="Vector" d="M15.8334 8.41668C15.8334 12.3695 11.4483 16.4861 9.97581 17.7576C9.83863 17.8607 9.67165 17.9165 9.50002 17.9165C9.32839 17.9165 9.16141 17.8607 9.02423 17.7576C7.55173 16.4861 3.16669 12.3695 3.16669 8.41668C3.16669 6.73697 3.83395 5.12606 5.02168 3.93833C6.20941 2.7506 7.82032 2.08334 9.50002 2.08334C11.1797 2.08334 12.7906 2.7506 13.9784 3.93833C15.1661 5.12606 15.8334 6.73697 15.8334 8.41668Z" stroke="#182654" stroke-linecap="round" stroke-linejoin="round"/>
<path id="Vector_2" d="M9.5 10.7917C10.8117 10.7917 11.875 9.72833 11.875 8.41666C11.875 7.10498 10.8117 6.04166 9.5 6.04166C8.18832 6.04166 7.125 7.10498 7.125 8.41666C7.125 9.72833 8.18832 10.7917 9.5 10.7917Z" stroke="#182654" stroke-linecap="round" stroke-linejoin="round"/>
</g>
</svg>
