<svg width="19" height="20" viewBox="0 0 19 20" fill="none" xmlns="http://www.w3.org/2000/svg">
<path d="M14.25 17.125C14.25 15.4453 13.5827 13.8344 12.395 12.6466C11.2073 11.4589 9.59635 10.7917 7.91665 10.7917C6.23694 10.7917 4.62603 11.4589 3.4383 12.6466C2.25057 13.8344 1.58331 15.4453 1.58331 17.125" stroke="#182654" stroke-linecap="round" stroke-linejoin="round"/>
<path d="M7.91665 10.7917C10.1028 10.7917 11.875 9.01946 11.875 6.83333C11.875 4.64721 10.1028 2.875 7.91665 2.875C5.73052 2.875 3.95831 4.64721 3.95831 6.83333C3.95831 9.01946 5.73052 10.7917 7.91665 10.7917Z" stroke="#182654" stroke-linecap="round" stroke-linejoin="round"/>
<path d="M17.4167 16.3333C17.4167 13.6654 15.8333 11.1875 14.25 10C14.7704 9.60953 15.1866 9.09678 15.4617 8.50713C15.7368 7.91748 15.8622 7.26912 15.827 6.61943C15.7918 5.96973 15.5969 5.33874 15.2597 4.78229C14.9225 4.22583 14.4534 3.76108 13.8937 3.42917" stroke="#182654" stroke-linecap="round" stroke-linejoin="round"/>
</svg>
